<svg width="39" height="39" viewBox="0 0 39 39" fill="none" xmlns="http://www.w3.org/2000/svg">
<path fill-rule="evenodd" clip-rule="evenodd" d="M0 19.4997C0 8.95254 8.5502 0.402344 19.0974 0.402344C29.6446 0.402344 38.1948 8.95254 38.1948 19.4997C38.1948 30.0469 29.6446 38.5971 19.0974 38.5971C8.5502 38.5971 0 30.0469 0 19.4997ZM19.0974 9.95105C24.3492 9.95105 28.6461 14.248 28.6461 19.4997C28.6461 24.2741 25.1847 28.3323 20.4103 29.0484V22.245H22.6782L23.1556 19.4997H20.5297V17.7094C20.5297 16.9932 20.8878 16.2771 22.0814 16.2771H23.275V13.8899C23.275 13.8899 22.2007 13.6512 21.1265 13.6512C18.978 13.6512 17.5457 14.9641 17.5457 17.3513V19.4997H15.1586V22.245H17.5457V28.9291C13.0101 28.2129 9.5487 24.2741 9.5487 19.4997C9.5487 14.248 13.8456 9.95105 19.0974 9.95105Z" fill="white"/>
</svg>
