<svg width="324" height="69" viewBox="0 0 324 69" fill="none" xmlns="http://www.w3.org/2000/svg">
<rect width="324" height="69" rx="6" fill="#00ABAE"/>
<path d="M294.725 33.7579C294.725 33.7576 294.725 33.7572 294.724 33.7569L289.826 28.3053C289.459 27.8969 288.865 27.8984 288.5 28.3089C288.134 28.7192 288.136 29.383 288.503 29.7915L291.792 33.4516H271.937C271.42 33.4516 271 33.921 271 34.5C271 35.079 271.42 35.5484 271.937 35.5484H291.792L288.503 39.2085C288.136 39.617 288.134 40.2808 288.5 40.6911C288.865 41.1016 289.459 41.1031 289.826 40.6947L294.724 35.2431C294.725 35.2428 294.725 35.2424 294.725 35.2421C295.092 34.8323 295.091 34.1664 294.725 33.7579Z" fill="white"/>
<path d="M36.5605 36.7549H39.1885C39.1357 37.6162 38.8984 38.3809 38.4766 39.0488C38.0605 39.7168 37.4775 40.2383 36.7275 40.6133C35.9834 40.9883 35.0869 41.1758 34.0381 41.1758C33.2178 41.1758 32.4824 41.0352 31.832 40.7539C31.1816 40.4668 30.625 40.0566 30.1621 39.5234C29.7051 38.9902 29.3564 38.3457 29.1162 37.5898C28.876 36.834 28.7559 35.9873 28.7559 35.0498V34.1621C28.7559 33.2246 28.8789 32.3779 29.125 31.6221C29.377 30.8604 29.7344 30.2129 30.1973 29.6797C30.666 29.1465 31.2256 28.7363 31.876 28.4492C32.5264 28.1621 33.2529 28.0186 34.0557 28.0186C35.1221 28.0186 36.0215 28.2119 36.7539 28.5986C37.4922 28.9854 38.0635 29.5186 38.4678 30.1982C38.8779 30.8779 39.124 31.6514 39.2061 32.5186H36.5693C36.54 32.0029 36.4375 31.5664 36.2617 31.209C36.0859 30.8457 35.8193 30.5732 35.4619 30.3916C35.1104 30.2041 34.6416 30.1104 34.0557 30.1104C33.6162 30.1104 33.2324 30.1924 32.9043 30.3564C32.5762 30.5205 32.3008 30.7695 32.0781 31.1035C31.8555 31.4375 31.6885 31.8594 31.5771 32.3691C31.4717 32.873 31.4189 33.4648 31.4189 34.1445V35.0498C31.4189 35.7119 31.4688 36.2949 31.5684 36.7988C31.668 37.2969 31.8203 37.7188 32.0254 38.0645C32.2363 38.4043 32.5059 38.6621 32.834 38.8379C33.168 39.0078 33.5693 39.0928 34.0381 39.0928C34.5889 39.0928 35.043 39.0049 35.4004 38.8291C35.7578 38.6533 36.0303 38.3926 36.2178 38.0469C36.4111 37.7012 36.5254 37.2705 36.5605 36.7549ZM49.4541 33.415V35.4717H42.7744V33.415H49.4541ZM43.5566 28.2031V41H40.9199V28.2031H43.5566ZM51.335 28.2031V41H48.707V28.2031H51.335ZM62.2158 38.9434V41H55.4043V38.9434H62.2158ZM56.2656 28.2031V41H53.6289V28.2031H56.2656ZM61.3281 33.415V35.4189H55.4043V33.415H61.3281ZM62.207 28.2031V30.2686H55.4043V28.2031H62.207ZM71.1719 36.7549H73.7998C73.7471 37.6162 73.5098 38.3809 73.0879 39.0488C72.6719 39.7168 72.0889 40.2383 71.3389 40.6133C70.5947 40.9883 69.6982 41.1758 68.6494 41.1758C67.8291 41.1758 67.0938 41.0352 66.4434 40.7539C65.793 40.4668 65.2363 40.0566 64.7734 39.5234C64.3164 38.9902 63.9678 38.3457 63.7275 37.5898C63.4873 36.834 63.3672 35.9873 63.3672 35.0498V34.1621C63.3672 33.2246 63.4902 32.3779 63.7363 31.6221C63.9883 30.8604 64.3457 30.2129 64.8086 29.6797C65.2773 29.1465 65.8369 28.7363 66.4873 28.4492C67.1377 28.1621 67.8643 28.0186 68.667 28.0186C69.7334 28.0186 70.6328 28.2119 71.3652 28.5986C72.1035 28.9854 72.6748 29.5186 73.0791 30.1982C73.4893 30.8779 73.7354 31.6514 73.8174 32.5186H71.1807C71.1514 32.0029 71.0488 31.5664 70.873 31.209C70.6973 30.8457 70.4307 30.5732 70.0732 30.3916C69.7217 30.2041 69.2529 30.1104 68.667 30.1104C68.2275 30.1104 67.8438 30.1924 67.5156 30.3564C67.1875 30.5205 66.9121 30.7695 66.6895 31.1035C66.4668 31.4375 66.2998 31.8594 66.1885 32.3691C66.083 32.873 66.0303 33.4648 66.0303 34.1445V35.0498C66.0303 35.7119 66.0801 36.2949 66.1797 36.7988C66.2793 37.2969 66.4316 37.7188 66.6367 38.0645C66.8477 38.4043 67.1172 38.6621 67.4453 38.8379C67.7793 39.0078 68.1807 39.0928 68.6494 39.0928C69.2002 39.0928 69.6543 39.0049 70.0117 38.8291C70.3691 38.6533 70.6416 38.3926 70.8291 38.0469C71.0225 37.7012 71.1367 37.2705 71.1719 36.7549ZM78.168 28.2031V41H75.5312V28.2031H78.168ZM85.832 28.2031L80.7607 34.5225L77.834 37.6689L77.3594 35.1729L79.3369 32.4658L82.5977 28.2031H85.832ZM82.835 41L79.0645 35.085L81.0156 33.4502L85.9551 41H82.835ZM96.6602 30.3916L93.1797 41H90.376L95.1309 28.2031H96.915L96.6602 30.3916ZM99.5518 41L96.0625 30.3916L95.7812 28.2031H97.583L102.364 41H99.5518ZM99.3936 36.2363V38.3018H92.6348V36.2363H99.3936ZM107.444 38.3281L110.459 28.2031H113.395L108.938 41H107.005L107.444 38.3281ZM104.667 28.2031L107.673 38.3281L108.13 41H106.179L101.749 28.2031H104.667ZM119.125 30.3916L115.645 41H112.841L117.596 28.2031H119.38L119.125 30.3916ZM122.017 41L118.527 30.3916L118.246 28.2031H120.048L124.829 41H122.017ZM121.858 36.2363V38.3018H115.1V36.2363H121.858ZM128.819 28.2031V41H126.191V28.2031H128.819ZM139.516 38.9434V41H133.073V38.9434H139.516ZM133.926 28.2031V41H131.289V28.2031H133.926ZM146.406 30.3916L142.926 41H140.122L144.877 28.2031H146.661L146.406 30.3916ZM149.298 41L145.809 30.3916L145.527 28.2031H147.329L152.11 41H149.298ZM149.14 36.2363V38.3018H142.381V36.2363H149.14ZM158.307 35.3838H155.02L155.002 33.5732H157.762C158.248 33.5732 158.646 33.5117 158.957 33.3887C159.268 33.2598 159.499 33.0752 159.651 32.835C159.81 32.5889 159.889 32.29 159.889 31.9385C159.889 31.54 159.812 31.2178 159.66 30.9717C159.514 30.7256 159.282 30.5469 158.966 30.4355C158.655 30.3242 158.254 30.2686 157.762 30.2686H155.934V41H153.297V28.2031H157.762C158.506 28.2031 159.171 28.2734 159.757 28.4141C160.349 28.5547 160.85 28.7686 161.26 29.0557C161.67 29.3428 161.983 29.7061 162.2 30.1455C162.417 30.5791 162.525 31.0947 162.525 31.6924C162.525 32.2197 162.405 32.7061 162.165 33.1514C161.931 33.5967 161.559 33.96 161.049 34.2412C160.545 34.5225 159.886 34.6777 159.071 34.707L158.307 35.3838ZM158.192 41H154.299L155.327 38.9434H158.192C158.655 38.9434 159.033 38.8701 159.326 38.7236C159.619 38.5713 159.836 38.3662 159.977 38.1084C160.117 37.8506 160.188 37.5547 160.188 37.2207C160.188 36.8457 160.123 36.5205 159.994 36.2451C159.871 35.9697 159.672 35.7588 159.396 35.6123C159.121 35.46 158.758 35.3838 158.307 35.3838H155.767L155.784 33.5732H158.948L159.555 34.2852C160.334 34.2734 160.961 34.4111 161.436 34.6982C161.916 34.9795 162.265 35.3457 162.481 35.7969C162.704 36.248 162.815 36.7314 162.815 37.2471C162.815 38.0674 162.637 38.7588 162.279 39.3213C161.922 39.8779 161.397 40.2969 160.706 40.5781C160.021 40.8594 159.183 41 158.192 41ZM173.02 38.9434V41H166.577V38.9434H173.02ZM167.43 28.2031V41H164.793V28.2031H167.43ZM183.118 38.9434V41H176.307V38.9434H183.118ZM177.168 28.2031V41H174.531V28.2031H177.168ZM182.23 33.415V35.4189H176.307V33.415H182.23ZM183.109 28.2031V30.2686H176.307V28.2031H183.109ZM195.801 37.6514C195.801 37.4229 195.766 37.2178 195.695 37.0361C195.631 36.8486 195.508 36.6787 195.326 36.5264C195.145 36.3682 194.89 36.2129 194.562 36.0605C194.233 35.9082 193.809 35.75 193.287 35.5859C192.707 35.3984 192.156 35.1875 191.635 34.9531C191.119 34.7188 190.662 34.4463 190.264 34.1357C189.871 33.8193 189.561 33.4531 189.332 33.0371C189.109 32.6211 188.998 32.1377 188.998 31.5869C188.998 31.0537 189.115 30.5703 189.35 30.1367C189.584 29.6973 189.912 29.3223 190.334 29.0117C190.756 28.6953 191.254 28.4521 191.828 28.2822C192.408 28.1123 193.044 28.0273 193.735 28.0273C194.679 28.0273 195.502 28.1973 196.205 28.5371C196.908 28.877 197.453 29.3428 197.84 29.9346C198.232 30.5264 198.429 31.2031 198.429 31.9648H195.81C195.81 31.5898 195.73 31.2617 195.572 30.9805C195.42 30.6934 195.186 30.4678 194.869 30.3037C194.559 30.1396 194.166 30.0576 193.691 30.0576C193.234 30.0576 192.854 30.1279 192.549 30.2686C192.244 30.4033 192.016 30.5879 191.863 30.8223C191.711 31.0508 191.635 31.3086 191.635 31.5957C191.635 31.8125 191.688 32.0088 191.793 32.1846C191.904 32.3604 192.068 32.5244 192.285 32.6768C192.502 32.8291 192.769 32.9727 193.085 33.1074C193.401 33.2422 193.768 33.374 194.184 33.5029C194.881 33.7139 195.493 33.9512 196.021 34.2148C196.554 34.4785 196.999 34.7744 197.356 35.1025C197.714 35.4307 197.983 35.8027 198.165 36.2188C198.347 36.6348 198.438 37.1064 198.438 37.6338C198.438 38.1904 198.329 38.6885 198.112 39.1279C197.896 39.5674 197.582 39.9395 197.172 40.2441C196.762 40.5488 196.272 40.7803 195.704 40.9385C195.136 41.0967 194.5 41.1758 193.797 41.1758C193.164 41.1758 192.54 41.0938 191.925 40.9297C191.31 40.7598 190.75 40.5049 190.246 40.165C189.748 39.8252 189.35 39.3916 189.051 38.8643C188.752 38.3369 188.603 37.7129 188.603 36.9922H191.248C191.248 37.3906 191.31 37.7275 191.433 38.0029C191.556 38.2783 191.729 38.501 191.951 38.6709C192.18 38.8408 192.449 38.9639 192.76 39.04C193.076 39.1162 193.422 39.1543 193.797 39.1543C194.254 39.1543 194.629 39.0898 194.922 38.9609C195.221 38.832 195.44 38.6533 195.581 38.4248C195.728 38.1963 195.801 37.9385 195.801 37.6514ZM208.457 38.9434V41H202.015V38.9434H208.457ZM202.867 28.2031V41H200.23V28.2031H202.867ZM219.9 34.3027V34.9092C219.9 35.8818 219.769 36.7549 219.505 37.5283C219.241 38.3018 218.869 38.9609 218.389 39.5059C217.908 40.0449 217.334 40.458 216.666 40.7451C216.004 41.0322 215.269 41.1758 214.46 41.1758C213.657 41.1758 212.922 41.0322 212.254 40.7451C211.592 40.458 211.018 40.0449 210.531 39.5059C210.045 38.9609 209.667 38.3018 209.397 37.5283C209.134 36.7549 209.002 35.8818 209.002 34.9092V34.3027C209.002 33.3242 209.134 32.4512 209.397 31.6836C209.661 30.9102 210.033 30.251 210.514 29.7061C211 29.1611 211.574 28.7451 212.236 28.458C212.904 28.1709 213.64 28.0273 214.442 28.0273C215.251 28.0273 215.986 28.1709 216.648 28.458C217.316 28.7451 217.891 29.1611 218.371 29.7061C218.857 30.251 219.232 30.9102 219.496 31.6836C219.766 32.4512 219.9 33.3242 219.9 34.3027ZM217.237 34.9092V34.2852C217.237 33.6055 217.176 33.0078 217.053 32.4922C216.93 31.9766 216.748 31.543 216.508 31.1914C216.268 30.8398 215.975 30.5762 215.629 30.4004C215.283 30.2188 214.888 30.1279 214.442 30.1279C213.997 30.1279 213.602 30.2188 213.256 30.4004C212.916 30.5762 212.626 30.8398 212.386 31.1914C212.151 31.543 211.973 31.9766 211.85 32.4922C211.727 33.0078 211.665 33.6055 211.665 34.2852V34.9092C211.665 35.583 211.727 36.1807 211.85 36.7021C211.973 37.2178 212.154 37.6543 212.395 38.0117C212.635 38.3633 212.928 38.6299 213.273 38.8115C213.619 38.9932 214.015 39.084 214.46 39.084C214.905 39.084 215.301 38.9932 215.646 38.8115C215.992 38.6299 216.282 38.3633 216.517 38.0117C216.751 37.6543 216.93 37.2178 217.053 36.7021C217.176 36.1807 217.237 35.583 217.237 34.9092ZM226.923 28.2031V41H224.295V28.2031H226.923ZM230.86 28.2031V30.2686H220.419V28.2031H230.86ZM238.885 37.6514C238.885 37.4229 238.85 37.2178 238.779 37.0361C238.715 36.8486 238.592 36.6787 238.41 36.5264C238.229 36.3682 237.974 36.2129 237.646 36.0605C237.317 35.9082 236.893 35.75 236.371 35.5859C235.791 35.3984 235.24 35.1875 234.719 34.9531C234.203 34.7188 233.746 34.4463 233.348 34.1357C232.955 33.8193 232.645 33.4531 232.416 33.0371C232.193 32.6211 232.082 32.1377 232.082 31.5869C232.082 31.0537 232.199 30.5703 232.434 30.1367C232.668 29.6973 232.996 29.3223 233.418 29.0117C233.84 28.6953 234.338 28.4521 234.912 28.2822C235.492 28.1123 236.128 28.0273 236.819 28.0273C237.763 28.0273 238.586 28.1973 239.289 28.5371C239.992 28.877 240.537 29.3428 240.924 29.9346C241.316 30.5264 241.513 31.2031 241.513 31.9648H238.894C238.894 31.5898 238.814 31.2617 238.656 30.9805C238.504 30.6934 238.27 30.4678 237.953 30.3037C237.643 30.1396 237.25 30.0576 236.775 30.0576C236.318 30.0576 235.938 30.1279 235.633 30.2686C235.328 30.4033 235.1 30.5879 234.947 30.8223C234.795 31.0508 234.719 31.3086 234.719 31.5957C234.719 31.8125 234.771 32.0088 234.877 32.1846C234.988 32.3604 235.152 32.5244 235.369 32.6768C235.586 32.8291 235.853 32.9727 236.169 33.1074C236.485 33.2422 236.852 33.374 237.268 33.5029C237.965 33.7139 238.577 33.9512 239.104 34.2148C239.638 34.4785 240.083 34.7744 240.44 35.1025C240.798 35.4307 241.067 35.8027 241.249 36.2188C241.431 36.6348 241.521 37.1064 241.521 37.6338C241.521 38.1904 241.413 38.6885 241.196 39.1279C240.979 39.5674 240.666 39.9395 240.256 40.2441C239.846 40.5488 239.356 40.7803 238.788 40.9385C238.22 41.0967 237.584 41.1758 236.881 41.1758C236.248 41.1758 235.624 41.0938 235.009 40.9297C234.394 40.7598 233.834 40.5049 233.33 40.165C232.832 39.8252 232.434 39.3916 232.135 38.8643C231.836 38.3369 231.687 37.7129 231.687 36.9922H234.332C234.332 37.3906 234.394 37.7275 234.517 38.0029C234.64 38.2783 234.812 38.501 235.035 38.6709C235.264 38.8408 235.533 38.9639 235.844 39.04C236.16 39.1162 236.506 39.1543 236.881 39.1543C237.338 39.1543 237.713 39.0898 238.006 38.9609C238.305 38.832 238.524 38.6533 238.665 38.4248C238.812 38.1963 238.885 37.9385 238.885 37.6514Z" fill="white"/>
</svg>
