<svg width="39" height="39" viewBox="0 0 39 39" fill="none" xmlns="http://www.w3.org/2000/svg">
<path d="M19.0974 22.8418C17.307 22.8418 15.7554 21.4095 15.7554 19.4997C15.7554 17.7094 17.1877 16.1577 19.0974 16.1577C20.8878 16.1577 22.4394 17.59 22.4394 19.4997C22.4394 21.2901 20.8878 22.8418 19.0974 22.8418Z" fill="white"/>
<path fill-rule="evenodd" clip-rule="evenodd" d="M23.1556 11.3833H15.0392C14.0843 11.5027 13.6069 11.6221 13.2488 11.7414C12.7714 11.8608 12.4133 12.0995 12.0552 12.4576C11.7719 12.7409 11.638 13.0243 11.4762 13.3667C11.4336 13.457 11.3889 13.5516 11.3391 13.6512C11.3206 13.7066 11.2993 13.7648 11.2764 13.8272C11.1516 14.1684 10.981 14.6344 10.981 15.4415V23.5579C11.1004 24.5128 11.2197 24.9902 11.3391 25.3483C11.4584 25.8258 11.6972 26.1838 12.0552 26.5419C12.3386 26.8253 12.6219 26.9591 12.9644 27.1209C13.0547 27.1636 13.1492 27.2082 13.2488 27.2581C13.3042 27.2765 13.3625 27.2978 13.4249 27.3207C13.766 27.4456 14.2321 27.6161 15.0392 27.6161H23.1556C24.1105 27.4968 24.5879 27.3774 24.946 27.2581C25.4234 27.1387 25.7815 26.9 26.1396 26.5419C26.4229 26.2586 26.5568 25.9752 26.7186 25.6328C26.7613 25.5424 26.8059 25.4479 26.8557 25.3483C26.8742 25.2929 26.8955 25.2347 26.9184 25.1722C27.0432 24.8311 27.2138 24.3651 27.2138 23.5579V15.4415C27.0944 14.4867 26.9751 14.0092 26.8557 13.6512C26.7364 13.1737 26.4976 12.8157 26.1396 12.4576C25.8562 12.1742 25.5729 12.0404 25.2304 11.8785C25.1402 11.8359 25.0455 11.7912 24.946 11.7414C24.8906 11.723 24.8323 11.7016 24.7699 11.6788C24.4288 11.5539 23.9628 11.3833 23.1556 11.3833ZM19.0974 14.3673C16.2328 14.3673 13.965 16.6351 13.965 19.4997C13.965 22.3644 16.2328 24.6322 19.0974 24.6322C21.962 24.6322 24.2298 22.3644 24.2298 19.4997C24.2298 16.6351 21.962 14.3673 19.0974 14.3673ZM25.5428 14.248C25.5428 14.9072 25.0084 15.4415 24.3492 15.4415C23.69 15.4415 23.1556 14.9072 23.1556 14.248C23.1556 13.5888 23.69 13.0544 24.3492 13.0544C25.0084 13.0544 25.5428 13.5888 25.5428 14.248Z" fill="white"/>
<path fill-rule="evenodd" clip-rule="evenodd" d="M0 19.4997C0 8.95254 8.5502 0.402344 19.0974 0.402344C29.6446 0.402344 38.1948 8.95254 38.1948 19.4997C38.1948 30.0469 29.6446 38.5971 19.0974 38.5971C8.5502 38.5971 0 30.0469 0 19.4997ZM15.0392 9.59297H23.1556C24.2298 9.71232 24.946 9.83168 25.5428 10.0704C26.2589 10.4285 26.7364 10.6672 27.3332 11.264C27.93 11.8608 28.288 12.4576 28.5267 13.0544C28.7655 13.6512 29.0042 14.3673 29.0042 15.4415V23.5579C28.8848 24.6322 28.7655 25.3483 28.5267 25.9451C28.1687 26.6613 27.93 27.1387 27.3332 27.7355C26.7364 28.3323 26.1396 28.6904 25.5428 28.9291C24.946 29.1678 24.2298 29.4065 23.1556 29.4065H15.0392C13.965 29.2872 13.2488 29.1678 12.652 28.9291C11.9359 28.571 11.4584 28.3323 10.8616 27.7355C10.2649 27.1387 9.90678 26.5419 9.66806 25.9451C9.42934 25.3483 9.19063 24.6322 9.19063 23.5579V15.4415C9.30998 14.3673 9.42934 13.6512 9.66806 13.0544C10.0261 12.3382 10.2649 11.8608 10.8616 11.264C11.4584 10.6672 12.0552 10.3091 12.652 10.0704C13.2488 9.83168 13.965 9.59297 15.0392 9.59297Z" fill="white"/>
</svg>
