<svg width="39" height="39" viewBox="0 0 39 39" fill="none" xmlns="http://www.w3.org/2000/svg">
<path fill-rule="evenodd" clip-rule="evenodd" d="M0 19.4997C0 8.95254 8.5502 0.402344 19.0974 0.402344C29.6446 0.402344 38.1948 8.95254 38.1948 19.4997C38.1948 30.0469 29.6446 38.5971 19.0974 38.5971C8.5502 38.5971 0 30.0469 0 19.4997ZM9.78742 16.2771V29.0484H13.8456V16.2771H9.78742ZM9.5487 12.2189C9.5487 13.5318 10.5036 14.4867 11.8165 14.4867C13.1295 14.4867 14.0843 13.5318 14.0843 12.2189C14.0843 10.9059 13.1295 9.95105 11.8165 9.95105C10.6229 9.95105 9.5487 10.9059 9.5487 12.2189ZM24.5879 29.0484H28.4074V21.1708C28.4074 17.2319 26.0202 15.919 23.7524 15.919C21.7233 15.919 20.291 17.2319 19.9329 18.0674V16.2771H16.1134V29.0484H20.1716V22.245C20.1716 20.4546 21.3652 19.4997 22.5588 19.4997C23.7524 19.4997 24.5879 20.0965 24.5879 22.1256V29.0484Z" fill="white"/>
</svg>
