<svg width="332" height="77" viewBox="0 0 332 77" fill="none" xmlns="http://www.w3.org/2000/svg">
<g filter="url(#filter0_d_2_97)">
<rect x="4" width="324" height="69" rx="6" fill="white"/>
<path d="M298.725 33.7579C298.725 33.7576 298.725 33.7572 298.724 33.7569L293.826 28.3053C293.459 27.8969 292.865 27.8984 292.5 28.3089C292.134 28.7192 292.136 29.383 292.503 29.7915L295.792 33.4516H275.937C275.42 33.4516 275 33.921 275 34.5C275 35.079 275.42 35.5484 275.937 35.5484H295.792L292.503 39.2085C292.136 39.617 292.134 40.2808 292.5 40.6911C292.865 41.1016 293.459 41.1031 293.826 40.6947L298.724 35.2431C298.725 35.2428 298.725 35.2424 298.725 35.2421C299.092 34.8323 299.091 34.1664 298.725 33.7579Z" fill="#00ABAE"/>
<path d="M40.5605 36.7549H43.1885C43.1357 37.6162 42.8984 38.3809 42.4766 39.0488C42.0605 39.7168 41.4775 40.2383 40.7275 40.6133C39.9834 40.9883 39.0869 41.1758 38.0381 41.1758C37.2178 41.1758 36.4824 41.0352 35.832 40.7539C35.1816 40.4668 34.625 40.0566 34.1621 39.5234C33.7051 38.9902 33.3564 38.3457 33.1162 37.5898C32.876 36.834 32.7559 35.9873 32.7559 35.0498V34.1621C32.7559 33.2246 32.8789 32.3779 33.125 31.6221C33.377 30.8604 33.7344 30.2129 34.1973 29.6797C34.666 29.1465 35.2256 28.7363 35.876 28.4492C36.5264 28.1621 37.2529 28.0186 38.0557 28.0186C39.1221 28.0186 40.0215 28.2119 40.7539 28.5986C41.4922 28.9854 42.0635 29.5186 42.4678 30.1982C42.8779 30.8779 43.124 31.6514 43.2061 32.5186H40.5693C40.54 32.0029 40.4375 31.5664 40.2617 31.209C40.0859 30.8457 39.8193 30.5732 39.4619 30.3916C39.1104 30.2041 38.6416 30.1104 38.0557 30.1104C37.6162 30.1104 37.2324 30.1924 36.9043 30.3564C36.5762 30.5205 36.3008 30.7695 36.0781 31.1035C35.8555 31.4375 35.6885 31.8594 35.5771 32.3691C35.4717 32.873 35.4189 33.4648 35.4189 34.1445V35.0498C35.4189 35.7119 35.4688 36.2949 35.5684 36.7988C35.668 37.2969 35.8203 37.7188 36.0254 38.0645C36.2363 38.4043 36.5059 38.6621 36.834 38.8379C37.168 39.0078 37.5693 39.0928 38.0381 39.0928C38.5889 39.0928 39.043 39.0049 39.4004 38.8291C39.7578 38.6533 40.0303 38.3926 40.2178 38.0469C40.4111 37.7012 40.5254 37.2705 40.5605 36.7549ZM53.4541 33.415V35.4717H46.7744V33.415H53.4541ZM47.5566 28.2031V41H44.9199V28.2031H47.5566ZM55.335 28.2031V41H52.707V28.2031H55.335ZM66.2158 38.9434V41H59.4043V38.9434H66.2158ZM60.2656 28.2031V41H57.6289V28.2031H60.2656ZM65.3281 33.415V35.4189H59.4043V33.415H65.3281ZM66.207 28.2031V30.2686H59.4043V28.2031H66.207ZM75.1719 36.7549H77.7998C77.7471 37.6162 77.5098 38.3809 77.0879 39.0488C76.6719 39.7168 76.0889 40.2383 75.3389 40.6133C74.5947 40.9883 73.6982 41.1758 72.6494 41.1758C71.8291 41.1758 71.0938 41.0352 70.4434 40.7539C69.793 40.4668 69.2363 40.0566 68.7734 39.5234C68.3164 38.9902 67.9678 38.3457 67.7275 37.5898C67.4873 36.834 67.3672 35.9873 67.3672 35.0498V34.1621C67.3672 33.2246 67.4902 32.3779 67.7363 31.6221C67.9883 30.8604 68.3457 30.2129 68.8086 29.6797C69.2773 29.1465 69.8369 28.7363 70.4873 28.4492C71.1377 28.1621 71.8643 28.0186 72.667 28.0186C73.7334 28.0186 74.6328 28.2119 75.3652 28.5986C76.1035 28.9854 76.6748 29.5186 77.0791 30.1982C77.4893 30.8779 77.7354 31.6514 77.8174 32.5186H75.1807C75.1514 32.0029 75.0488 31.5664 74.873 31.209C74.6973 30.8457 74.4307 30.5732 74.0732 30.3916C73.7217 30.2041 73.2529 30.1104 72.667 30.1104C72.2275 30.1104 71.8438 30.1924 71.5156 30.3564C71.1875 30.5205 70.9121 30.7695 70.6895 31.1035C70.4668 31.4375 70.2998 31.8594 70.1885 32.3691C70.083 32.873 70.0303 33.4648 70.0303 34.1445V35.0498C70.0303 35.7119 70.0801 36.2949 70.1797 36.7988C70.2793 37.2969 70.4316 37.7188 70.6367 38.0645C70.8477 38.4043 71.1172 38.6621 71.4453 38.8379C71.7793 39.0078 72.1807 39.0928 72.6494 39.0928C73.2002 39.0928 73.6543 39.0049 74.0117 38.8291C74.3691 38.6533 74.6416 38.3926 74.8291 38.0469C75.0225 37.7012 75.1367 37.2705 75.1719 36.7549ZM82.168 28.2031V41H79.5312V28.2031H82.168ZM89.832 28.2031L84.7607 34.5225L81.834 37.6689L81.3594 35.1729L83.3369 32.4658L86.5977 28.2031H89.832ZM86.835 41L83.0645 35.085L85.0156 33.4502L89.9551 41H86.835ZM100.66 30.3916L97.1797 41H94.376L99.1309 28.2031H100.915L100.66 30.3916ZM103.552 41L100.062 30.3916L99.7812 28.2031H101.583L106.364 41H103.552ZM103.394 36.2363V38.3018H96.6348V36.2363H103.394ZM111.444 38.3281L114.459 28.2031H117.395L112.938 41H111.005L111.444 38.3281ZM108.667 28.2031L111.673 38.3281L112.13 41H110.179L105.749 28.2031H108.667ZM123.125 30.3916L119.645 41H116.841L121.596 28.2031H123.38L123.125 30.3916ZM126.017 41L122.527 30.3916L122.246 28.2031H124.048L128.829 41H126.017ZM125.858 36.2363V38.3018H119.1V36.2363H125.858ZM132.819 28.2031V41H130.191V28.2031H132.819ZM143.516 38.9434V41H137.073V38.9434H143.516ZM137.926 28.2031V41H135.289V28.2031H137.926ZM150.406 30.3916L146.926 41H144.122L148.877 28.2031H150.661L150.406 30.3916ZM153.298 41L149.809 30.3916L149.527 28.2031H151.329L156.11 41H153.298ZM153.14 36.2363V38.3018H146.381V36.2363H153.14ZM162.307 35.3838H159.02L159.002 33.5732H161.762C162.248 33.5732 162.646 33.5117 162.957 33.3887C163.268 33.2598 163.499 33.0752 163.651 32.835C163.81 32.5889 163.889 32.29 163.889 31.9385C163.889 31.54 163.812 31.2178 163.66 30.9717C163.514 30.7256 163.282 30.5469 162.966 30.4355C162.655 30.3242 162.254 30.2686 161.762 30.2686H159.934V41H157.297V28.2031H161.762C162.506 28.2031 163.171 28.2734 163.757 28.4141C164.349 28.5547 164.85 28.7686 165.26 29.0557C165.67 29.3428 165.983 29.7061 166.2 30.1455C166.417 30.5791 166.525 31.0947 166.525 31.6924C166.525 32.2197 166.405 32.7061 166.165 33.1514C165.931 33.5967 165.559 33.96 165.049 34.2412C164.545 34.5225 163.886 34.6777 163.071 34.707L162.307 35.3838ZM162.192 41H158.299L159.327 38.9434H162.192C162.655 38.9434 163.033 38.8701 163.326 38.7236C163.619 38.5713 163.836 38.3662 163.977 38.1084C164.117 37.8506 164.188 37.5547 164.188 37.2207C164.188 36.8457 164.123 36.5205 163.994 36.2451C163.871 35.9697 163.672 35.7588 163.396 35.6123C163.121 35.46 162.758 35.3838 162.307 35.3838H159.767L159.784 33.5732H162.948L163.555 34.2852C164.334 34.2734 164.961 34.4111 165.436 34.6982C165.916 34.9795 166.265 35.3457 166.481 35.7969C166.704 36.248 166.815 36.7314 166.815 37.2471C166.815 38.0674 166.637 38.7588 166.279 39.3213C165.922 39.8779 165.397 40.2969 164.706 40.5781C164.021 40.8594 163.183 41 162.192 41ZM177.02 38.9434V41H170.577V38.9434H177.02ZM171.43 28.2031V41H168.793V28.2031H171.43ZM187.118 38.9434V41H180.307V38.9434H187.118ZM181.168 28.2031V41H178.531V28.2031H181.168ZM186.23 33.415V35.4189H180.307V33.415H186.23ZM187.109 28.2031V30.2686H180.307V28.2031H187.109ZM199.801 37.6514C199.801 37.4229 199.766 37.2178 199.695 37.0361C199.631 36.8486 199.508 36.6787 199.326 36.5264C199.145 36.3682 198.89 36.2129 198.562 36.0605C198.233 35.9082 197.809 35.75 197.287 35.5859C196.707 35.3984 196.156 35.1875 195.635 34.9531C195.119 34.7188 194.662 34.4463 194.264 34.1357C193.871 33.8193 193.561 33.4531 193.332 33.0371C193.109 32.6211 192.998 32.1377 192.998 31.5869C192.998 31.0537 193.115 30.5703 193.35 30.1367C193.584 29.6973 193.912 29.3223 194.334 29.0117C194.756 28.6953 195.254 28.4521 195.828 28.2822C196.408 28.1123 197.044 28.0273 197.735 28.0273C198.679 28.0273 199.502 28.1973 200.205 28.5371C200.908 28.877 201.453 29.3428 201.84 29.9346C202.232 30.5264 202.429 31.2031 202.429 31.9648H199.81C199.81 31.5898 199.73 31.2617 199.572 30.9805C199.42 30.6934 199.186 30.4678 198.869 30.3037C198.559 30.1396 198.166 30.0576 197.691 30.0576C197.234 30.0576 196.854 30.1279 196.549 30.2686C196.244 30.4033 196.016 30.5879 195.863 30.8223C195.711 31.0508 195.635 31.3086 195.635 31.5957C195.635 31.8125 195.688 32.0088 195.793 32.1846C195.904 32.3604 196.068 32.5244 196.285 32.6768C196.502 32.8291 196.769 32.9727 197.085 33.1074C197.401 33.2422 197.768 33.374 198.184 33.5029C198.881 33.7139 199.493 33.9512 200.021 34.2148C200.554 34.4785 200.999 34.7744 201.356 35.1025C201.714 35.4307 201.983 35.8027 202.165 36.2188C202.347 36.6348 202.438 37.1064 202.438 37.6338C202.438 38.1904 202.329 38.6885 202.112 39.1279C201.896 39.5674 201.582 39.9395 201.172 40.2441C200.762 40.5488 200.272 40.7803 199.704 40.9385C199.136 41.0967 198.5 41.1758 197.797 41.1758C197.164 41.1758 196.54 41.0938 195.925 40.9297C195.31 40.7598 194.75 40.5049 194.246 40.165C193.748 39.8252 193.35 39.3916 193.051 38.8643C192.752 38.3369 192.603 37.7129 192.603 36.9922H195.248C195.248 37.3906 195.31 37.7275 195.433 38.0029C195.556 38.2783 195.729 38.501 195.951 38.6709C196.18 38.8408 196.449 38.9639 196.76 39.04C197.076 39.1162 197.422 39.1543 197.797 39.1543C198.254 39.1543 198.629 39.0898 198.922 38.9609C199.221 38.832 199.44 38.6533 199.581 38.4248C199.728 38.1963 199.801 37.9385 199.801 37.6514ZM212.457 38.9434V41H206.015V38.9434H212.457ZM206.867 28.2031V41H204.23V28.2031H206.867ZM223.9 34.3027V34.9092C223.9 35.8818 223.769 36.7549 223.505 37.5283C223.241 38.3018 222.869 38.9609 222.389 39.5059C221.908 40.0449 221.334 40.458 220.666 40.7451C220.004 41.0322 219.269 41.1758 218.46 41.1758C217.657 41.1758 216.922 41.0322 216.254 40.7451C215.592 40.458 215.018 40.0449 214.531 39.5059C214.045 38.9609 213.667 38.3018 213.397 37.5283C213.134 36.7549 213.002 35.8818 213.002 34.9092V34.3027C213.002 33.3242 213.134 32.4512 213.397 31.6836C213.661 30.9102 214.033 30.251 214.514 29.7061C215 29.1611 215.574 28.7451 216.236 28.458C216.904 28.1709 217.64 28.0273 218.442 28.0273C219.251 28.0273 219.986 28.1709 220.648 28.458C221.316 28.7451 221.891 29.1611 222.371 29.7061C222.857 30.251 223.232 30.9102 223.496 31.6836C223.766 32.4512 223.9 33.3242 223.9 34.3027ZM221.237 34.9092V34.2852C221.237 33.6055 221.176 33.0078 221.053 32.4922C220.93 31.9766 220.748 31.543 220.508 31.1914C220.268 30.8398 219.975 30.5762 219.629 30.4004C219.283 30.2188 218.888 30.1279 218.442 30.1279C217.997 30.1279 217.602 30.2188 217.256 30.4004C216.916 30.5762 216.626 30.8398 216.386 31.1914C216.151 31.543 215.973 31.9766 215.85 32.4922C215.727 33.0078 215.665 33.6055 215.665 34.2852V34.9092C215.665 35.583 215.727 36.1807 215.85 36.7021C215.973 37.2178 216.154 37.6543 216.395 38.0117C216.635 38.3633 216.928 38.6299 217.273 38.8115C217.619 38.9932 218.015 39.084 218.46 39.084C218.905 39.084 219.301 38.9932 219.646 38.8115C219.992 38.6299 220.282 38.3633 220.517 38.0117C220.751 37.6543 220.93 37.2178 221.053 36.7021C221.176 36.1807 221.237 35.583 221.237 34.9092ZM230.923 28.2031V41H228.295V28.2031H230.923ZM234.86 28.2031V30.2686H224.419V28.2031H234.86ZM242.885 37.6514C242.885 37.4229 242.85 37.2178 242.779 37.0361C242.715 36.8486 242.592 36.6787 242.41 36.5264C242.229 36.3682 241.974 36.2129 241.646 36.0605C241.317 35.9082 240.893 35.75 240.371 35.5859C239.791 35.3984 239.24 35.1875 238.719 34.9531C238.203 34.7188 237.746 34.4463 237.348 34.1357C236.955 33.8193 236.645 33.4531 236.416 33.0371C236.193 32.6211 236.082 32.1377 236.082 31.5869C236.082 31.0537 236.199 30.5703 236.434 30.1367C236.668 29.6973 236.996 29.3223 237.418 29.0117C237.84 28.6953 238.338 28.4521 238.912 28.2822C239.492 28.1123 240.128 28.0273 240.819 28.0273C241.763 28.0273 242.586 28.1973 243.289 28.5371C243.992 28.877 244.537 29.3428 244.924 29.9346C245.316 30.5264 245.513 31.2031 245.513 31.9648H242.894C242.894 31.5898 242.814 31.2617 242.656 30.9805C242.504 30.6934 242.27 30.4678 241.953 30.3037C241.643 30.1396 241.25 30.0576 240.775 30.0576C240.318 30.0576 239.938 30.1279 239.633 30.2686C239.328 30.4033 239.1 30.5879 238.947 30.8223C238.795 31.0508 238.719 31.3086 238.719 31.5957C238.719 31.8125 238.771 32.0088 238.877 32.1846C238.988 32.3604 239.152 32.5244 239.369 32.6768C239.586 32.8291 239.853 32.9727 240.169 33.1074C240.485 33.2422 240.852 33.374 241.268 33.5029C241.965 33.7139 242.577 33.9512 243.104 34.2148C243.638 34.4785 244.083 34.7744 244.44 35.1025C244.798 35.4307 245.067 35.8027 245.249 36.2188C245.431 36.6348 245.521 37.1064 245.521 37.6338C245.521 38.1904 245.413 38.6885 245.196 39.1279C244.979 39.5674 244.666 39.9395 244.256 40.2441C243.846 40.5488 243.356 40.7803 242.788 40.9385C242.22 41.0967 241.584 41.1758 240.881 41.1758C240.248 41.1758 239.624 41.0938 239.009 40.9297C238.394 40.7598 237.834 40.5049 237.33 40.165C236.832 39.8252 236.434 39.3916 236.135 38.8643C235.836 38.3369 235.687 37.7129 235.687 36.9922H238.332C238.332 37.3906 238.394 37.7275 238.517 38.0029C238.64 38.2783 238.812 38.501 239.035 38.6709C239.264 38.8408 239.533 38.9639 239.844 39.04C240.16 39.1162 240.506 39.1543 240.881 39.1543C241.338 39.1543 241.713 39.0898 242.006 38.9609C242.305 38.832 242.524 38.6533 242.665 38.4248C242.812 38.1963 242.885 37.9385 242.885 37.6514Z" fill="#00ABAE"/>
</g>
<defs>
<filter id="filter0_d_2_97" x="0" y="0" width="332" height="77" filterUnits="userSpaceOnUse" color-interpolation-filters="sRGB">
<feFlood flood-opacity="0" result="BackgroundImageFix"/>
<feColorMatrix in="SourceAlpha" type="matrix" values="0 0 0 0 0 0 0 0 0 0 0 0 0 0 0 0 0 0 127 0" result="hardAlpha"/>
<feOffset dy="4"/>
<feGaussianBlur stdDeviation="2"/>
<feComposite in2="hardAlpha" operator="out"/>
<feColorMatrix type="matrix" values="0 0 0 0 0 0 0 0 0 0 0 0 0 0 0 0 0 0 0.25 0"/>
<feBlend mode="normal" in2="BackgroundImageFix" result="effect1_dropShadow_2_97"/>
<feBlend mode="normal" in="SourceGraphic" in2="effect1_dropShadow_2_97" result="shape"/>
</filter>
</defs>
</svg>
