<svg width="1281" height="1292" viewBox="0 0 1281 1292" fill="none" xmlns="http://www.w3.org/2000/svg">
<path d="M1025.99 885.661C1101.7 1000.32 985.964 1064.5 918.633 1082.25C711.07 1135.7 753.871 987.123 484.811 993.473C215.75 999.823 292.278 946.446 159.977 473.676C27.6764 0.907312 398.132 166.35 414.008 254.657C429.885 342.964 526.019 346.617 673.963 285.349C821.906 224.081 998.08 521.6 904.886 614.477C811.693 707.355 931.36 742.332 1025.99 885.661Z" stroke="#00ABAE" stroke-opacity="0.25"/>
<path d="M980.924 861.624C1049.11 965.006 944.756 1022.94 884.057 1038.99C696.939 1087.3 735.591 953.269 493.065 959.128C250.538 964.987 319.544 916.807 200.523 490.463C81.5014 64.1193 415.339 213.158 429.607 292.797C443.874 372.436 530.525 375.684 663.908 320.352C797.29 265.02 955.942 533.277 871.895 617.092C787.848 700.908 895.695 732.397 980.924 861.624Z" stroke="#00ABAE" stroke-opacity="0.25"/>
<path d="M945.88 843.177C1008.27 937.676 912.891 990.562 857.401 1005.19C686.339 1049.25 721.613 926.796 499.868 932.03C278.124 937.263 341.194 893.272 232.159 503.643C123.124 114.013 428.433 250.362 441.517 323.14C454.601 395.917 533.83 398.927 655.757 348.434C777.684 297.941 922.876 543.139 846.071 619.683C769.266 696.228 867.889 725.054 945.88 843.177Z" stroke="#00ABAE" stroke-opacity="0.25"/>
<path d="M913.289 824.65C970.145 910.822 883.165 959.09 832.568 972.453C676.591 1012.69 708.791 900.99 506.618 905.834C304.445 910.678 361.962 870.534 262.675 515.188C163.388 159.842 441.704 284.109 453.61 350.485C465.517 416.861 537.751 419.582 648.931 373.488C760.112 327.394 892.41 550.993 822.361 620.833C752.311 690.674 842.219 716.935 913.289 824.65Z" stroke="#00ABAE" stroke-opacity="0.25"/>
<path d="M877.343 805.683C928.192 882.847 850.301 926.136 805 938.134C665.348 974.264 694.234 874.183 513.247 878.634C332.26 883.085 383.771 847.091 295.085 528.815C206.4 210.539 455.48 321.707 466.101 381.163C476.723 440.618 541.386 443.015 640.94 401.662C740.494 360.308 858.803 560.542 796.057 623.147C733.31 685.751 813.781 709.227 877.343 805.683Z" stroke="#00ABAE" stroke-opacity="0.25"/>
<path d="M839.535 785.773C884.125 853.374 815.891 891.252 776.2 901.741C653.843 933.325 679.113 845.688 520.522 849.51C361.931 853.332 407.054 821.831 329.208 543.054C251.363 264.277 469.669 361.741 479.001 413.815C488.334 465.889 544.996 468.016 632.214 431.841C719.432 395.666 823.187 571.077 768.231 625.878C713.274 680.679 783.798 701.273 839.535 785.773Z" stroke="#00ABAE" stroke-opacity="0.25"/>
</svg>
