<svg width="39" height="39" viewBox="0 0 39 39" fill="none" xmlns="http://www.w3.org/2000/svg">
<path d="M22.2007 19.4997L17.1877 16.6351V22.3644L22.2007 19.4997Z" fill="white"/>
<path fill-rule="evenodd" clip-rule="evenodd" d="M0 19.4997C0 8.95254 8.5502 0.402344 19.0974 0.402344C29.6446 0.402344 38.1948 8.95254 38.1948 19.4997C38.1948 30.0469 29.6446 38.5971 19.0974 38.5971C8.5502 38.5971 0 30.0469 0 19.4997ZM26.4977 13.1737C27.3332 13.4125 27.93 14.0092 28.1687 14.8448C28.6461 16.3964 28.6461 19.4997 28.6461 19.4997C28.6461 19.4997 28.6461 22.6031 28.288 24.1547C28.0493 24.9903 27.4525 25.587 26.617 25.8258C25.0653 26.1838 19.0974 26.1838 19.0974 26.1838C19.0974 26.1838 13.0101 26.1838 11.5778 25.8258C10.7423 25.587 10.1455 24.9903 9.90678 24.1547C9.54871 22.6031 9.5487 19.4997 9.5487 19.4997C9.5487 19.4997 9.5487 16.3964 9.78742 14.8448C10.0261 14.0092 10.6229 13.4125 11.4584 13.1737C13.0101 12.8157 18.978 12.8157 18.978 12.8157C18.978 12.8157 25.0654 12.8157 26.4977 13.1737Z" fill="white"/>
</svg>
